<?xml version="1.0" standalone="no"?><!DOCTYPE svg PUBLIC "-//W3C//DTD SVG 1.1//EN" "http://www.w3.org/Graphics/SVG/1.1/DTD/svg11.dtd"><svg t="1718779534754" class="icon" viewBox="0 0 1034 1024" version="1.1" xmlns="http://www.w3.org/2000/svg" p-id="8285" xmlns:xlink="http://www.w3.org/1999/xlink" width="64.625" height="64"><path d="M819.360967 405.338628q43.842144 0 82.81294 16.562588t67.711756 45.790684 45.303549 67.711756 16.562588 82.325805-16.562588 82.81294-45.303549 67.711756-67.711756 45.303549-82.81294 16.562588-82.325805-16.562588-67.224622-45.303549-45.303549-67.711756-16.562588-82.81294q0-29.228096 6.819889-53.584843 1.94854-6.819889 3.89708-13.152643t3.89708-13.152643l14.614048-43.842144-317.61198-58.456193q46.764954 28.253826 75.018781 75.99305t28.253826 106.195417q0 43.842144-16.562588 82.81294t-45.790684 67.711756-67.711756 45.303549-82.325805 16.562588-82.325805-16.562588-67.711756-45.303549-45.790684-67.711756-16.562588-82.81294 16.562588-82.325805 45.790684-67.711756 67.711756-45.790684 82.325805-16.562588q4.871349 0 8.768429 0.487135t7.794159 0.487135q17.536858-57.481923 35.073716-117.886655t32.150906-112.041036 25.818152-89.145694 15.101183-50.174899q5.845619-21.433937 20.946802-30.202366t30.202366-6.332754 25.331017 13.152643 6.332754 28.253826q-0.97427 5.845619-4.871349 20.946802t-10.716969 37.50939l79.89013 0.97427-0.97427 34.099446-88.658559-0.97427q-11.691239 40.919335-26.305287 91.581368t-31.176636 105.221147l340.020187 48.713494 33.125176-100.349797-103.272607 0q-6.819889-10.716969-9.742699-21.433937-1.94854-8.768429-0.97427-16.562588t11.691239-12.665508q10.716969-3.89708 37.50939-9.255564t56.994788-8.281294 56.994788-1.461405 37.50939 9.255564 11.691239 18.023993-1.94854 19.972532q-3.89708 10.716969-11.691239 22.408207l-20.459667 0-43.842144 125.680814 87.684289 0 2.92281 0zM360.479854 616.755191q0-40.919335-19.485398-75.505915t-52.610573-54.071978q-18.511128 61.379002-31.663771 105.221147t-17.049723 55.533383q-5.845619 17.536858-21.433937 23.382477t-30.202366 2.92281-24.356747-13.639778-3.89708-27.279557q3.89708-11.691239 17.536858-58.456193t33.125176-111.066766l-2.92281 0q-32.150906 0-59.917597 12.178373t-48.226359 32.638041-32.638041 48.226359-12.178373 59.917597 12.178373 59.917597 32.638041 48.713494 48.226359 33.125176 59.917597 12.178373 59.917597-12.178373 48.226359-33.125176 32.638041-48.713494 12.178373-59.917597zM817.412427 770.689832q31.176636 0 58.943328-12.178373t48.713494-33.125176 33.125176-48.713494 12.178373-59.917597-12.178373-59.917597-33.125176-48.226359-48.713494-32.638041-58.943328-12.178373l-6.819889 0q-46.764954 1.94854-82.81294 27.766691t-52.610573 65.763217l-5.845619 17.536858q-5.845619 20.459667-5.845619 41.893605 0 32.150906 12.178373 59.917597t33.125176 48.713494 48.713494 33.125176 59.917597 12.178373zM543.642591 526.148093q25.331017 0 43.35501 18.023993t18.023993 43.35501-18.023993 43.35501-43.35501 18.023993-42.867875-18.023993-17.536858-43.35501 17.536858-43.35501 42.867875-18.023993z" p-id="8286" fill="#FFDB6E"></path></svg>